<svg width="25" height="24" viewBox="0 0 25 24" fill="none" xmlns="http://www.w3.org/2000/svg">
<path d="M3.5 10.5651C3.5 9.9907 3.5 9.70352 3.57403 9.43905C3.6396 9.20478 3.74737 8.98444 3.89203 8.78886C4.05534 8.56806 4.28202 8.39175 4.73539 8.03912L11.5177 2.764C11.869 2.49075 12.0447 2.35412 12.2387 2.3016C12.4098 2.25526 12.5902 2.25526 12.7613 2.3016C12.9553 2.35412 13.131 2.49075 13.4823 2.764L20.2646 8.03913C20.718 8.39175 20.9447 8.56806 21.108 8.78886C21.2526 8.98444 21.3604 9.20478 21.426 9.43905C21.5 9.70352 21.5 9.9907 21.5 10.5651V17.8C21.5 18.9201 21.5 19.4801 21.282 19.908C21.0903 20.2843 20.7843 20.5903 20.408 20.782C19.9802 21 19.4201 21 18.3 21H6.7C5.5799 21 5.01984 21 4.59202 20.782C4.21569 20.5903 3.90973 20.2843 3.71799 19.908C3.5 19.4801 3.5 18.9201 3.5 17.8V10.5651Z" fill="#3C4937"/>
<path d="M8.5 14C9.24843 15.7819 10.5 17 12.5 17C14.5 17 15.717 15.9745 16.5 14" stroke="#FAFAFA" stroke-width="1.5" stroke-linecap="round"/>
</svg>
