<svg width="25" height="24" viewBox="0 0 25 24" fill="none" xmlns="http://www.w3.org/2000/svg">
<path d="M2.5 11.9999L12.1422 16.8211C12.2734 16.8866 12.339 16.9194 12.4078 16.9324C12.4687 16.9438 12.5313 16.9438 12.5922 16.9324C12.661 16.9194 12.7266 16.8866 12.8578 16.8211L22.5 11.9999M2.5 16.9999L12.1422 21.8211C12.2734 21.8866 12.339 21.9194 12.4078 21.9324C12.4687 21.9438 12.5313 21.9438 12.5922 21.9324C12.661 21.9194 12.7266 21.8866 12.8578 21.8211L22.5 16.9999M2.5 6.99994L12.1422 2.17883C12.2734 2.11324 12.339 2.08044 12.4078 2.06753C12.4687 2.0561 12.5313 2.0561 12.5922 2.06753C12.661 2.08044 12.7266 2.11324 12.8578 2.17883L22.5 6.99994L12.8578 11.8211C12.7266 11.8866 12.661 11.9194 12.5922 11.9324C12.5313 11.9438 12.4687 11.9438 12.4078 11.9324C12.339 11.9194 12.2734 11.8866 12.1422 11.8211L2.5 6.99994Z" stroke="#505B4B" stroke-width="1.5" stroke-linecap="round" stroke-linejoin="round"/>
</svg>
