<svg width="65" height="32" viewBox="0 0 65 32" fill="none" xmlns="http://www.w3.org/2000/svg">
<path d="M34.5 25H30.5M38.5 12C38.5 10.4087 37.8679 8.88258 36.7427 7.75736C35.6174 6.63214 34.0913 6 32.5 6C30.9087 6 29.3826 6.63214 28.2574 7.75736C27.1322 8.88258 26.5 10.4087 26.5 12C26.5 15.0902 25.7205 17.206 24.8497 18.6054C24.1151 19.7859 23.7479 20.3761 23.7613 20.5408C23.7763 20.7231 23.8149 20.7926 23.9618 20.9016C24.0945 21 24.6926 21 25.8889 21H39.1112C40.3074 21 40.9056 21 41.0382 20.9016C41.1852 20.7926 41.2238 20.7231 41.2387 20.5408C41.2522 20.3761 40.8849 19.7859 40.1504 18.6054C39.2795 17.206 38.5 15.0902 38.5 12Z" stroke="#505B4B" stroke-width="1.5" stroke-linecap="round" stroke-linejoin="round"/>
</svg>
